<svg width="33" height="41" viewBox="0 0 33 41" fill="none" xmlns="http://www.w3.org/2000/svg">
<path d="M0.4 34.6V31.2665H4.4V16.4665C4.4 13.6778 5.22783 11.1861 6.8835 8.99148C8.53883 6.79714 10.711 5.39998 13.4 4.79998V3.59998C13.4 2.76664 13.6917 2.05831 14.275 1.47498C14.8583 0.891642 15.5667 0.599976 16.4 0.599976C17.2333 0.599976 17.9417 0.891642 18.525 1.47498C19.1083 2.05831 19.4 2.76664 19.4 3.59998V4.79998C22.089 5.39998 24.2612 6.79714 25.9165 8.99148C27.5722 11.1861 28.4 13.6778 28.4 16.4665V31.2665H32.4V34.6H0.4ZM16.4 40.6C15.3 40.6 14.3583 40.2083 13.575 39.425C12.7917 38.6416 12.4 37.7 12.4 36.6H20.4C20.4 37.7 20.0083 38.6416 19.225 39.425C18.4417 40.2083 17.5 40.6 16.4 40.6ZM7.7335 31.2665H25.0665V16.4665C25.0665 14.0665 24.2222 12.0221 22.5335 10.3335C20.8445 8.64448 18.8 7.79998 16.4 7.79998C14 7.79998 11.9555 8.64448 10.2665 10.3335C8.57783 12.0221 7.7335 14.0665 7.7335 16.4665V31.2665Z" fill="#1D1A22"/>
</svg>
