<svg width="36" height="32" viewBox="0 0 36 32" fill="none" xmlns="http://www.w3.org/2000/svg">
<path d="M0.400689 32.0004V28.6669H6.33419L5.60069 27.9669C3.68969 26.1225 2.32302 24.1892 1.50069 22.1669C0.678356 20.1449 0.267189 18.1449 0.267189 16.1669C0.267189 12.5115 1.33119 9.2477 3.45919 6.37537C5.58686 3.50303 8.37852 1.5447 11.8342 0.500366V3.96687C9.34519 4.92253 7.35069 6.5142 5.85069 8.74187C4.35069 10.9699 3.60069 13.4449 3.60069 16.1669C3.60069 17.8225 3.88952 19.4032 4.46719 20.9089C5.04519 22.4142 6.00086 23.7892 7.33419 25.0339L8.50069 26.1004V20.5669H11.8342V32.0004H0.400689ZM24.1672 31.5339V28.0339C26.6562 27.1005 28.6507 25.5199 30.1507 23.2919C31.6507 21.0642 32.4007 18.5892 32.4007 15.8669C32.4007 14.1669 32.1062 12.5642 31.5172 11.0589C30.9285 9.5532 29.9785 8.1892 28.6672 6.96687L27.5007 5.90037V11.4339H24.1672V0.000366211H35.6007V3.33387H29.6342L30.4007 4.03387C32.323 5.84487 33.6925 7.76987 34.5092 9.80887C35.3259 11.8475 35.7342 13.8669 35.7342 15.8669C35.7342 19.5002 34.6647 22.7585 32.5257 25.6419C30.3867 28.5252 27.6005 30.4892 24.1672 31.5339Z" fill="#1D1A22"/>
</svg>
