<svg width="36" height="41" viewBox="0 0 36 41" fill="none" xmlns="http://www.w3.org/2000/svg">
<path d="M18 40.7977C15.4667 38.5087 12.6555 36.7532 9.5665 35.5312C6.47783 34.3088 3.289 33.6977 0 33.6977V12.0642C3.211 12.0642 6.361 12.7448 9.45 14.1062C12.539 15.4672 15.389 17.3865 18 19.8642C20.611 17.3865 23.461 15.4672 26.55 14.1062C29.639 12.7448 32.789 12.0642 36 12.0642V33.6977C32.7 33.6977 29.5083 34.3088 26.425 35.5312C23.3417 36.7532 20.5333 38.5087 18 40.7977ZM18 36.4976C20.2777 34.842 22.6498 33.5198 25.1165 32.5312C27.5832 31.5422 30.0998 30.9088 32.6665 30.6312V15.6977C30.3445 16.0867 27.9528 16.9838 25.4915 18.3892C23.0305 19.7948 20.5333 21.7198 18 24.1642C15.311 21.6308 12.7748 19.6782 10.3915 18.3062C8.00817 16.9338 5.6555 16.0643 3.3335 15.6977V30.6312C5.90017 30.9088 8.41683 31.5422 10.8835 32.5312C13.3502 33.5198 15.7223 34.842 18 36.4976Z" fill="#1D1A22"/>
<path d="M18 16.1977L17.0199 15.3042C15.5614 13.9558 14.3557 12.7926 13.4027 11.8146C12.4496 10.8366 11.6907 9.96117 11.1261 9.18826C10.5613 8.41535 10.1658 7.71221 9.93957 7.07885C9.71319 6.44534 9.6 5.80241 9.6 5.15004C9.6 3.85325 10.0293 2.77032 10.8879 1.90126C11.7467 1.03219 12.8107 0.597656 14.0799 0.597656C14.8547 0.597656 15.5781 0.77727 16.2501 1.1365C16.9221 1.49587 17.5054 2.01116 18 2.68239C18.5506 1.9828 19.1549 1.46041 19.8129 1.11522C20.4709 0.770178 21.1733 0.597656 21.9201 0.597656C23.1893 0.597656 24.2533 1.03219 25.1121 1.90126C25.9707 2.77032 26.4 3.85325 26.4 5.15004C26.4 5.80241 26.2868 6.44534 26.0604 7.07885C25.8342 7.71221 25.4387 8.41535 24.8739 9.18826C24.3093 9.96117 23.5504 10.8366 22.5973 11.8146C21.6443 12.7926 20.4386 13.9558 18.9801 15.3042L18 16.1977ZM18 14.3116C19.3929 13.0257 20.5391 11.9231 21.4388 11.0037C22.3383 10.0841 23.0517 9.28044 23.5791 8.59262C24.1063 7.9048 24.4749 7.292 24.6849 6.75422C24.8949 6.21645 24.9999 5.68243 24.9999 5.15217C24.9999 4.24311 24.7106 3.4931 24.132 2.90214C23.5534 2.31132 22.8171 2.01591 21.9232 2.01591C21.2229 2.01591 20.5748 2.22744 19.9788 2.65048C19.383 3.07353 18.9241 3.65144 18.6021 4.38422H17.3841C17.0713 3.66094 16.617 3.08537 16.0212 2.6575C15.4252 2.22978 14.7771 2.01591 14.0768 2.01591C13.1829 2.01591 12.4466 2.31132 11.868 2.90214C11.2894 3.4931 11.0001 4.24389 11.0001 5.15451C11.0001 5.68576 11.1051 6.22198 11.3151 6.76316C11.5251 7.30448 11.8937 7.92139 12.4209 8.6139C12.9483 9.30654 13.6647 10.1102 14.5701 11.025C15.4753 11.9397 16.6186 13.0352 18 14.3116Z" fill="#1D1A22"/>
<path d="M18.15 17.1569L17.1699 16.2634C15.7114 14.915 14.5057 13.7518 13.5527 12.7738C12.5996 11.7958 11.8407 10.9204 11.2761 10.1475C10.7113 9.37454 10.3158 8.67141 10.0896 8.03804C9.86319 7.40454 9.75 6.7616 9.75 6.10924C9.75 4.81245 10.1793 3.72952 11.0379 2.86045C11.8967 1.99139 12.9607 1.55685 14.2299 1.55685C15.0047 1.55685 15.7281 1.73647 16.4001 2.09569C17.0721 2.45506 17.6554 2.97036 18.15 3.64159C18.7006 2.942 19.3049 2.41961 19.9629 2.07442C20.6209 1.72938 21.3233 1.55685 22.0701 1.55685C23.3393 1.55685 24.4033 1.99139 25.2621 2.86045C26.1207 3.72952 26.55 4.81245 26.55 6.10924C26.55 6.7616 26.4368 7.40454 26.2104 8.03804C25.9842 8.67141 25.5887 9.37454 25.0239 10.1475C24.4593 10.9204 23.7004 11.7958 22.7473 12.7738C21.7943 13.7518 20.5886 14.915 19.1301 16.2634L18.15 17.1569ZM18.15 15.2708C19.5429 13.9849 20.6891 12.8823 21.5888 11.9629C22.4883 11.0433 23.2017 10.2396 23.7291 9.55182C24.2563 8.864 24.6249 8.2512 24.8349 7.71342C25.0449 7.17564 25.1499 6.64162 25.1499 6.11136C25.1499 5.2023 24.8606 4.4523 24.282 3.86134C23.7034 3.27052 22.9671 2.97511 22.0732 2.97511C21.3729 2.97511 20.7248 3.18663 20.1288 3.60968C19.533 4.03273 19.0741 4.61064 18.7521 5.34342H17.5341C17.2213 4.62014 16.767 4.04457 16.1712 3.6167C15.5752 3.18897 14.9271 2.97511 14.2268 2.97511C13.3329 2.97511 12.5966 3.27052 12.018 3.86134C11.4394 4.4523 11.1501 5.20309 11.1501 6.1137C11.1501 6.64496 11.2551 7.18118 11.4651 7.72236C11.6751 8.26368 12.0437 8.88059 12.5709 9.57309C13.0983 10.2657 13.8147 11.0694 14.7201 11.9842C15.6253 12.8989 16.7686 13.9944 18.15 15.2708Z" fill="#1D1A22"/>
<path d="M18.15 17.9481L17.1699 17.0546C15.7114 15.7062 14.5057 14.543 13.5527 13.565C12.5996 12.587 11.8407 11.7116 11.2761 10.9387C10.7113 10.1658 10.3158 9.46264 10.0896 8.82927C9.86319 8.19577 9.75 7.55283 9.75 6.90047C9.75 5.60368 10.1793 4.52075 11.0379 3.65168C11.8967 2.78262 12.9607 2.34808 14.2299 2.34808C15.0047 2.34808 15.7281 2.5277 16.4001 2.88692C17.0721 3.24629 17.6554 3.76159 18.15 4.43282C18.7006 3.73323 19.3049 3.21084 19.9629 2.86565C20.6209 2.52061 21.3233 2.34808 22.0701 2.34808C23.3393 2.34808 24.4033 2.78262 25.2621 3.65168C26.1207 4.52075 26.55 5.60368 26.55 6.90047C26.55 7.55283 26.4368 8.19577 26.2104 8.82927C25.9842 9.46264 25.5887 10.1658 25.0239 10.9387C24.4593 11.7116 23.7004 12.587 22.7473 13.565C21.7943 14.543 20.5886 15.7062 19.1301 17.0546L18.15 17.9481ZM18.15 16.062C19.5429 14.7762 20.6891 13.6735 21.5888 12.7541C22.4883 11.8346 23.2017 11.0309 23.7291 10.343C24.2563 9.65523 24.6249 9.04243 24.8349 8.50465C25.0449 7.96687 25.1499 7.43285 25.1499 6.90259C25.1499 5.99353 24.8606 5.24353 24.282 4.65257C23.7034 4.06175 22.9671 3.76634 22.0732 3.76634C21.3729 3.76634 20.7248 3.97786 20.1288 4.40091C19.533 4.82396 19.0741 5.40187 18.7521 6.13464H17.5341C17.2213 5.41137 16.767 4.8358 16.1712 4.40793C15.5752 3.98021 14.9271 3.76634 14.2268 3.76634C13.3329 3.76634 12.5966 4.06175 12.018 4.65257C11.4394 5.24353 11.1501 5.99432 11.1501 6.90493C11.1501 7.43619 11.2551 7.9724 11.4651 8.51359C11.6751 9.05491 12.0437 9.67182 12.5709 10.3643C13.0983 11.057 13.8147 11.8607 14.7201 12.7754C15.6253 13.6901 16.7686 14.7857 18.15 16.062Z" fill="#1D1A22"/>
<path d="M18 40.7977C15.4667 38.5087 12.6555 36.7532 9.5665 35.5312C6.47783 34.3088 3.289 33.6977 0 33.6977V12.0642C3.211 12.0642 6.361 12.7448 9.45 14.1062C12.539 15.4672 15.389 17.3865 18 19.8642C20.611 17.3865 23.461 15.4672 26.55 14.1062C29.639 12.7448 32.789 12.0642 36 12.0642V33.6977C32.7 33.6977 29.5083 34.3088 26.425 35.5312C23.3417 36.7532 20.5333 38.5087 18 40.7977ZM18 36.4976C20.2777 34.842 22.6498 33.5198 25.1165 32.5312C27.5832 31.5422 30.0998 30.9088 32.6665 30.6312V15.6977C30.3445 16.0867 27.9528 16.9838 25.4915 18.3892C23.0305 19.7948 20.5333 21.7198 18 24.1642C15.311 21.6308 12.7748 19.6782 10.3915 18.3062C8.00817 16.9338 5.6555 16.0643 3.3335 15.6977V30.6312C5.90017 30.9088 8.41683 31.5422 10.8835 32.5312C13.3502 33.5198 15.7223 34.842 18 36.4976Z" stroke="#854B71"/>
<path d="M18 16.1977L17.0199 15.3042C15.5614 13.9558 14.3557 12.7926 13.4027 11.8146C12.4496 10.8366 11.6907 9.96117 11.1261 9.18826C10.5613 8.41535 10.1658 7.71221 9.93957 7.07885C9.71319 6.44534 9.6 5.80241 9.6 5.15004C9.6 3.85325 10.0293 2.77032 10.8879 1.90126C11.7467 1.03219 12.8107 0.597656 14.0799 0.597656C14.8547 0.597656 15.5781 0.77727 16.2501 1.1365C16.9221 1.49587 17.5054 2.01116 18 2.68239C18.5506 1.9828 19.1549 1.46041 19.8129 1.11522C20.4709 0.770178 21.1733 0.597656 21.9201 0.597656C23.1893 0.597656 24.2533 1.03219 25.1121 1.90126C25.9707 2.77032 26.4 3.85325 26.4 5.15004C26.4 5.80241 26.2868 6.44534 26.0604 7.07885C25.8342 7.71221 25.4387 8.41535 24.8739 9.18826C24.3093 9.96117 23.5504 10.8366 22.5973 11.8146C21.6443 12.7926 20.4386 13.9558 18.9801 15.3042L18 16.1977ZM18 14.3116C19.3929 13.0257 20.5391 11.9231 21.4388 11.0037C22.3383 10.0841 23.0517 9.28044 23.5791 8.59262C24.1063 7.9048 24.4749 7.292 24.6849 6.75422C24.8949 6.21645 24.9999 5.68243 24.9999 5.15217C24.9999 4.24311 24.7106 3.4931 24.132 2.90214C23.5534 2.31132 22.8171 2.01591 21.9232 2.01591C21.2229 2.01591 20.5748 2.22744 19.9788 2.65048C19.383 3.07353 18.9241 3.65144 18.6021 4.38422H17.3841C17.0713 3.66094 16.617 3.08537 16.0212 2.6575C15.4252 2.22978 14.7771 2.01591 14.0768 2.01591C13.1829 2.01591 12.4466 2.31132 11.868 2.90214C11.2894 3.4931 11.0001 4.24389 11.0001 5.15451C11.0001 5.68576 11.1051 6.22198 11.3151 6.76316C11.5251 7.30448 11.8937 7.92139 12.4209 8.6139C12.9483 9.30654 13.6647 10.1102 14.5701 11.025C15.4753 11.9397 16.6186 13.0352 18 14.3116Z" stroke="#854B71"/>
<path d="M18.15 17.1569L17.1699 16.2634C15.7114 14.915 14.5057 13.7518 13.5527 12.7738C12.5996 11.7958 11.8407 10.9204 11.2761 10.1475C10.7113 9.37454 10.3158 8.67141 10.0896 8.03804C9.86319 7.40454 9.75 6.7616 9.75 6.10924C9.75 4.81245 10.1793 3.72952 11.0379 2.86045C11.8967 1.99139 12.9607 1.55685 14.2299 1.55685C15.0047 1.55685 15.7281 1.73647 16.4001 2.09569C17.0721 2.45506 17.6554 2.97036 18.15 3.64159C18.7006 2.942 19.3049 2.41961 19.9629 2.07442C20.6209 1.72938 21.3233 1.55685 22.0701 1.55685C23.3393 1.55685 24.4033 1.99139 25.2621 2.86045C26.1207 3.72952 26.55 4.81245 26.55 6.10924C26.55 6.7616 26.4368 7.40454 26.2104 8.03804C25.9842 8.67141 25.5887 9.37454 25.0239 10.1475C24.4593 10.9204 23.7004 11.7958 22.7473 12.7738C21.7943 13.7518 20.5886 14.915 19.1301 16.2634L18.15 17.1569ZM18.15 15.2708C19.5429 13.9849 20.6891 12.8823 21.5888 11.9629C22.4883 11.0433 23.2017 10.2396 23.7291 9.55182C24.2563 8.864 24.6249 8.2512 24.8349 7.71342C25.0449 7.17564 25.1499 6.64162 25.1499 6.11136C25.1499 5.2023 24.8606 4.4523 24.282 3.86134C23.7034 3.27052 22.9671 2.97511 22.0732 2.97511C21.3729 2.97511 20.7248 3.18663 20.1288 3.60968C19.533 4.03273 19.0741 4.61064 18.7521 5.34342H17.5341C17.2213 4.62014 16.767 4.04457 16.1712 3.6167C15.5752 3.18897 14.9271 2.97511 14.2268 2.97511C13.3329 2.97511 12.5966 3.27052 12.018 3.86134C11.4394 4.4523 11.1501 5.20309 11.1501 6.1137C11.1501 6.64496 11.2551 7.18118 11.4651 7.72236C11.6751 8.26368 12.0437 8.88059 12.5709 9.57309C13.0983 10.2657 13.8147 11.0694 14.7201 11.9842C15.6253 12.8989 16.7686 13.9944 18.15 15.2708Z" stroke="#854B71"/>
<path d="M18.15 17.9481L17.1699 17.0546C15.7114 15.7062 14.5057 14.543 13.5527 13.565C12.5996 12.587 11.8407 11.7116 11.2761 10.9387C10.7113 10.1658 10.3158 9.46264 10.0896 8.82927C9.86319 8.19577 9.75 7.55283 9.75 6.90047C9.75 5.60368 10.1793 4.52075 11.0379 3.65168C11.8967 2.78262 12.9607 2.34808 14.2299 2.34808C15.0047 2.34808 15.7281 2.5277 16.4001 2.88692C17.0721 3.24629 17.6554 3.76159 18.15 4.43282C18.7006 3.73323 19.3049 3.21084 19.9629 2.86565C20.6209 2.52061 21.3233 2.34808 22.0701 2.34808C23.3393 2.34808 24.4033 2.78262 25.2621 3.65168C26.1207 4.52075 26.55 5.60368 26.55 6.90047C26.55 7.55283 26.4368 8.19577 26.2104 8.82927C25.9842 9.46264 25.5887 10.1658 25.0239 10.9387C24.4593 11.7116 23.7004 12.587 22.7473 13.565C21.7943 14.543 20.5886 15.7062 19.1301 17.0546L18.15 17.9481ZM18.15 16.062C19.5429 14.7762 20.6891 13.6735 21.5888 12.7541C22.4883 11.8346 23.2017 11.0309 23.7291 10.343C24.2563 9.65523 24.6249 9.04243 24.8349 8.50465C25.0449 7.96687 25.1499 7.43285 25.1499 6.90259C25.1499 5.99353 24.8606 5.24353 24.282 4.65257C23.7034 4.06175 22.9671 3.76634 22.0732 3.76634C21.3729 3.76634 20.7248 3.97786 20.1288 4.40091C19.533 4.82396 19.0741 5.40187 18.7521 6.13464H17.5341C17.2213 5.41137 16.767 4.8358 16.1712 4.40793C15.5752 3.98021 14.9271 3.76634 14.2268 3.76634C13.3329 3.76634 12.5966 4.06175 12.018 4.65257C11.4394 5.24353 11.1501 5.99432 11.1501 6.90493C11.1501 7.43619 11.2551 7.9724 11.4651 8.51359C11.6751 9.05491 12.0437 9.67182 12.5709 10.3643C13.0983 11.057 13.8147 11.8607 14.7201 12.7754C15.6253 13.6901 16.7686 14.7857 18.15 16.062Z" stroke="#854B71"/>
</svg>
