<svg width="20" height="20" viewBox="0 0 20 20" fill="none" xmlns="http://www.w3.org/2000/svg">
<path fill-rule="evenodd" clip-rule="evenodd" d="M10 3.33325C8.15837 3.33325 6.66671 4.82492 6.66671 6.66659C6.66671 8.50825 8.15837 9.99992 10 9.99992C11.8417 9.99992 13.3334 8.50825 13.3334 6.66659C13.3334 4.82492 11.8417 3.33325 10 3.33325ZM11.6667 6.66659C11.6667 5.74992 10.9167 4.99992 10 4.99992C9.08337 4.99992 8.33337 5.74992 8.33337 6.66659C8.33337 7.58325 9.08337 8.33325 10 8.33325C10.9167 8.33325 11.6667 7.58325 11.6667 6.66659ZM15 14.1666C14.8334 13.5749 12.25 12.4999 10 12.4999C7.75004 12.4999 5.16671 13.5749 5.00004 14.1749V14.9999H15V14.1666ZM3.33337 14.1666C3.33337 11.9499 7.77504 10.8333 10 10.8333C12.225 10.8333 16.6667 11.9499 16.6667 14.1666V16.6666H3.33337V14.1666Z" fill="#49454E"/>
</svg>
